<?xml version="1.0" encoding="utf-8"?>
<!-- Generator: Adobe Illustrator 25.3.1, SVG Export Plug-In . SVG Version: 6.00 Build 0)  -->
<svg version="1.1" id="編集モード" xmlns="http://www.w3.org/2000/svg" xmlns:xlink="http://www.w3.org/1999/xlink" x="0px"
	 y="0px" viewBox="0 0 199.6 152.1" style="enable-background:new 0 0 199.6 152.1;" xml:space="preserve">
<style type="text/css">
	.st0{fill:#333333;}
	.st1{fill:#FFFFFF;}
</style>
<rect class="st0" width="199.6" height="152.1"/>
<g>
	<rect x="-290" y="145.4" class="st0" width="85.6" height="6.7"/>
	<g>
		<path class="st0" d="M-279.1,42.8c-0.1,0-0.1-0.1-0.2-0.1s-0.1,0-0.2,0h-3v4h3.2c0.1,0,0.1,0,0.2-0.1l0.5-0.4
			c0.1,0,0.1-0.1,0.1-0.2v-2.5c0-0.1,0-0.2-0.1-0.3L-279.1,42.8z"/>
		<polygon class="st0" points="-248.4,51.3 -244.7,51.3 -246.5,45.8 		"/>
		<path class="st0" d="M-248.2,0L-348,23.7l0,48.3l99.8,23.7l99.8-23.7V23.7L-248.2,0z M-307.5,44.1c0,0.1,0,0.2-0.1,0.3
			c-0.1,0.1-0.2,0.1-0.3,0.1h-3.6c-0.1,0-0.2,0-0.3-0.1c-0.1-0.1-0.1-0.2-0.1-0.3v-0.7c0-0.1,0-0.1-0.1-0.2l-0.5-0.5
			c-0.1,0-0.1-0.1-0.2-0.1h-2.9c-0.1,0-0.1,0-0.2,0.1l-0.5,0.5c-0.1,0.1-0.1,0.2-0.1,0.2V53c0,0.1,0,0.2,0.1,0.2l0.4,0.4h3.5
			l0.4-0.4c0.1,0,0.1-0.1,0.1-0.2v-0.8c0-0.1,0-0.2,0.1-0.3c0.1-0.1,0.2-0.1,0.3-0.1h3.6c0.1,0,0.2,0,0.3,0.1
			c0.1,0.1,0.1,0.2,0.1,0.3v3c0,0.1,0,0.1-0.1,0.2c0,0-0.1,0.2-0.3,0.3l-1.7,1.5c-0.1,0.1-0.3,0.2-0.4,0.2c-0.1,0-0.3,0-0.4,0h-7.8
			c-0.1,0-0.2,0-0.4,0c-0.1,0-0.3-0.1-0.4-0.2l-1.7-1.5c-0.2-0.1-0.2-0.3-0.3-0.4s0-0.2,0-0.3V41.2c0,0,0-0.1,0-0.3s0.1-0.3,0.3-0.4
			l1.7-1.5c0.2-0.1,0.3-0.2,0.4-0.3s0.2,0,0.4,0h7.8c0.1,0,0.3,0,0.4,0s0.2,0.1,0.4,0.2l1.7,1.5c0.1,0.1,0.2,0.2,0.3,0.3
			s0.1,0.2,0.1,0.4C-307.5,41.2-307.5,44.1-307.5,44.1z M-273.2,57.4c0,0.1-0.1,0.1-0.3,0.1h-4.2c-0.1,0-0.2,0-0.3-0.1
			c-0.1-0.1-0.2-0.2-0.2-0.3l-3-6.6h-1.4v6.6c0,0.1,0,0.2-0.1,0.3c-0.1,0.1-0.2,0.1-0.3,0.1h-3.6c-0.1,0-0.2,0-0.3-0.1
			s-0.1-0.2-0.1-0.2V39.1c0-0.1,0-0.2,0.1-0.3c0.1-0.1,0.2-0.1,0.3-0.1h9.6c0.3,0,0.6,0.1,0.8,0.3l1.7,1.5c0.2,0.2,0.3,0.3,0.3,0.4
			s0,0.2,0,0.3v6.8c0,0.2,0,0.3-0.1,0.4c0,0.1-0.1,0.2-0.2,0.3l-1.8,1.6l3.1,6.8C-273.1,57.2-273.1,57.3-273.2,57.4z M-238.4,57.4
			c-0.1,0.1-0.2,0.1-0.4,0.1h-3.5c-0.1,0-0.2,0-0.3-0.1c-0.1-0.1-0.2-0.2-0.2-0.3l-0.7-2.2h-6.1l-0.7,2.2c0,0.1-0.1,0.2-0.2,0.3
			c-0.1,0.1-0.2,0.1-0.3,0.1h-3.4c-0.2,0-0.3,0-0.4-0.1s-0.1-0.2,0-0.3l6-18.1c0.1-0.2,0.2-0.4,0.4-0.4h3.6c0.2,0,0.3,0.1,0.4,0.4
			l6,18.1C-238.3,57.2-238.3,57.3-238.4,57.4z M-208.8,42.3c0,0.1-0.1,0.2-0.1,0.3s-0.2,0.1-0.3,0.1h-3.8v14.5
			c0,0.1-0.1,0.2-0.1,0.2s-0.2,0.1-0.3,0.1h-3.6c-0.1,0-0.2,0-0.3-0.1s-0.1-0.1-0.1-0.2V42.7h-3.8c-0.1,0-0.2,0-0.3-0.1
			s-0.1-0.2-0.1-0.3v-3.2c0-0.1,0-0.2,0.1-0.3s0.2-0.1,0.3-0.1h12.1c0.1,0,0.2,0,0.3,0.1s0.1,0.2,0.1,0.3L-208.8,42.3L-208.8,42.3z
			 M-177,42.3c0,0.1-0.1,0.2-0.1,0.3s-0.2,0.1-0.3,0.1h-7v3.5h5.4c0.3,0,0.4,0.1,0.4,0.4v3.2c0,0.2-0.1,0.4-0.4,0.4h-5.4v3.5h7
			c0.1,0,0.2,0,0.3,0.1s0.1,0.2,0.1,0.3v3.2c0,0.1-0.1,0.2-0.1,0.3s-0.2,0.1-0.3,0.1h-11c-0.3,0-0.4-0.1-0.4-0.4V39.1
			c0-0.2,0.1-0.4,0.4-0.4h11c0.1,0,0.2,0,0.3,0.1s0.1,0.2,0.1,0.3V42.3z"/>
	</g>
	<g>
		<g>
			<path class="st0" d="M-251,136.1c-0.1,0-0.2,0-0.3-0.1s-0.1-0.2-0.1-0.3v-8.3l-5.6-9.7c-0.1-0.1-0.1-0.2,0-0.3
				c0.1-0.1,0.2-0.2,0.4-0.2h3.9c0.1,0,0.2,0,0.3,0.1s0.2,0.2,0.2,0.3l3,5.3l3-5.3c0-0.1,0.1-0.2,0.2-0.3s0.2-0.1,0.3-0.1h3.9
				c0.2,0,0.3,0.1,0.4,0.2c0.1,0.1,0.1,0.2,0,0.3l-5.6,9.7v8.3c0,0.1-0.1,0.2-0.1,0.3s-0.2,0.1-0.3,0.1H-251z"/>
		</g>
		<g>
			<path class="st0" d="M-278,135.8c-0.2,0.2-0.4,0.2-0.5,0.3s-0.2,0-0.3,0h-7.8c-0.3,0-0.6-0.1-0.8-0.3l-1.7-1.5
				c-0.2-0.2-0.3-0.3-0.3-0.4c0-0.1,0-0.2,0-0.3v-13.8c0-0.2,0-0.3,0.1-0.4c0-0.1,0.1-0.2,0.3-0.3l1.7-1.5c0.1-0.1,0.2-0.2,0.3-0.2
				c0.1-0.1,0.3-0.1,0.5-0.1h7.8c0.1,0,0.2,0,0.4,0c0.1,0,0.3,0.1,0.4,0.3l1.7,1.5c0.2,0.2,0.3,0.3,0.3,0.4c0,0.1,0.1,0.2,0.1,0.3
				v2.9c0,0.1-0.1,0.2-0.1,0.3c-0.1,0.1-0.2,0.1-0.3,0.1h-3.6c-0.1,0-0.2,0-0.3-0.1c-0.1-0.1-0.1-0.2-0.1-0.3v-0.7
				c0-0.1,0-0.1-0.1-0.2l-0.5-0.5c0-0.1-0.1-0.1-0.2-0.1h-2.9c-0.1,0-0.1,0-0.2,0.1l-0.5,0.5c-0.1,0.1-0.1,0.2-0.1,0.2v9.5
				c0,0.1,0,0.1,0.1,0.2l0.4,0.4h3.5l0.4-0.4c0.1-0.1,0.1-0.1,0.1-0.2v-2.4h-2c-0.1,0-0.2,0-0.3-0.1c-0.1-0.1-0.1-0.2-0.1-0.3v-3.2
				c0-0.2,0.1-0.4,0.4-0.4h6c0.1,0,0.2,0,0.3,0.1c0.1,0.1,0.1,0.2,0.1,0.3v8.2c0,0.1,0,0.2-0.1,0.3s-0.1,0.2-0.2,0.3L-278,135.8z"/>
			<path class="st0" d="M-208.9,136.1c-0.1,0-0.2,0-0.3-0.1c-0.1-0.1-0.1-0.2-0.1-0.3l-0.1-6.9l-2.3,6.9c0,0.1-0.1,0.2-0.2,0.3
				s-0.2,0.1-0.3,0.1h-2.4c-0.1,0-0.2,0-0.4-0.1s-0.2-0.2-0.2-0.3l-2.3-6.9l-0.1,6.9c0,0.2-0.1,0.4-0.4,0.4h-3.6
				c-0.1,0-0.2,0-0.3-0.1c-0.1-0.1-0.1-0.2-0.1-0.3l0.8-18.1c0-0.1,0-0.2,0.1-0.3s0.1-0.1,0.2-0.1h3.8c0.2,0,0.4,0.1,0.4,0.3
				l2.7,10.5l0.3,2.3l0.2-2.3l3.2-10.4c0.1-0.2,0.2-0.3,0.4-0.3h3.8c0.1,0,0.2,0,0.3,0.1c0.1,0.1,0.1,0.2,0.1,0.3l0.8,18.1
				c0,0.2-0.1,0.4-0.4,0.4H-208.9z"/>
		</g>
	</g>
</g>
<g>
	<rect x="58" y="145.4" class="st1" width="85.6" height="6.7"/>
	<g>
		<path class="st1" d="M68.9,42.8c-0.1,0-0.1-0.1-0.2-0.1s-0.1,0-0.2,0h-3v4h3.2c0.1,0,0.2,0,0.2-0.1l0.5-0.4c0.1,0,0.1-0.1,0.1-0.2
			v-2.5c0-0.1,0-0.2-0.1-0.3L68.9,42.8z"/>
		<polygon class="st1" points="99.7,51.3 103.3,51.3 101.5,45.8 		"/>
		<path class="st1" d="M99.8,0L0,23.7l0,48.3l99.8,23.7l99.8-23.7V23.7L99.8,0z M40.5,44.1c0,0.1,0,0.2-0.1,0.3
			c-0.1,0.1-0.2,0.1-0.3,0.1h-3.6c-0.1,0-0.2,0-0.3-0.1s-0.1-0.2-0.1-0.3v-0.7c0-0.1,0-0.1-0.1-0.2l-0.5-0.5c-0.1,0-0.1-0.1-0.2-0.1
			h-2.9c-0.1,0-0.2,0-0.2,0.1l-0.5,0.5c-0.1,0.1-0.1,0.2-0.1,0.2V53c0,0.1,0,0.2,0.1,0.2l0.4,0.4h3.5l0.4-0.4c0.1,0,0.1-0.1,0.1-0.2
			v-0.8c0-0.1,0-0.2,0.1-0.3s0.2-0.1,0.3-0.1h3.6c0.1,0,0.2,0,0.3,0.1c0.1,0.1,0.1,0.2,0.1,0.3v3c0,0.1,0,0.1,0,0.2
			c0,0-0.1,0.2-0.3,0.3l-1.7,1.5c-0.1,0.1-0.3,0.2-0.4,0.2c-0.1,0-0.3,0-0.4,0h-7.8c-0.1,0-0.2,0-0.4,0s-0.3-0.1-0.4-0.2l-1.7-1.5
			c-0.2-0.1-0.2-0.3-0.3-0.4s0-0.2,0-0.3V41.2c0,0,0-0.1,0-0.3s0.1-0.3,0.3-0.4l1.7-1.5c0.2-0.1,0.3-0.2,0.4-0.3s0.2,0,0.4,0h7.8
			c0.1,0,0.3,0,0.4,0s0.2,0.1,0.4,0.2l1.7,1.5c0.1,0.1,0.2,0.2,0.3,0.3s0.1,0.2,0.1,0.4C40.5,41.2,40.5,44.1,40.5,44.1z M74.8,57.4
			c0,0.1-0.1,0.1-0.3,0.1h-4.2c-0.1,0-0.2,0-0.3-0.1c-0.1-0.1-0.2-0.2-0.2-0.3l-3-6.6h-1.4v6.6c0,0.1,0,0.2-0.1,0.3
			c-0.1,0.1-0.2,0.1-0.3,0.1h-3.6c-0.1,0-0.2,0-0.3-0.1S61,57.2,61,57.2V39.1c0-0.1,0-0.2,0.1-0.3s0.2-0.1,0.3-0.1h9.6
			c0.3,0,0.6,0.1,0.8,0.3l1.7,1.5c0.2,0.2,0.3,0.3,0.3,0.4s0,0.2,0,0.3v6.8c0,0.2,0,0.3-0.1,0.4s-0.1,0.2-0.2,0.3l-1.8,1.6l3.1,6.8
			C74.9,57.2,74.9,57.3,74.8,57.4z M109.6,57.4c-0.1,0.1-0.2,0.1-0.4,0.1h-3.4c-0.1,0-0.2,0-0.3-0.1c-0.1-0.1-0.2-0.2-0.2-0.3
			l-0.7-2.2h-6.1l-0.7,2.2c0,0.1-0.1,0.2-0.2,0.3c-0.1,0.1-0.2,0.1-0.3,0.1h-3.4c-0.2,0-0.3,0-0.4-0.1s-0.1-0.2,0-0.3l6-18.1
			c0.1-0.2,0.2-0.4,0.4-0.4h3.6c0.2,0,0.3,0.1,0.4,0.4l6,18.1C109.7,57.2,109.7,57.3,109.6,57.4z M139.2,42.3c0,0.1-0.1,0.2-0.1,0.3
			s-0.2,0.1-0.3,0.1h-3.8v14.5c0,0.1-0.1,0.2-0.1,0.2s-0.2,0.1-0.3,0.1h-3.6c-0.1,0-0.2,0-0.3-0.1s-0.1-0.1-0.1-0.2V42.7h-3.8
			c-0.1,0-0.2,0-0.3-0.1s-0.1-0.2-0.1-0.3v-3.2c0-0.1,0.1-0.2,0.1-0.3s0.2-0.1,0.3-0.1h12.1c0.1,0,0.2,0,0.3,0.1s0.1,0.2,0.1,0.3
			L139.2,42.3L139.2,42.3z M171,42.3c0,0.1-0.1,0.2-0.1,0.3s-0.2,0.1-0.3,0.1h-7v3.5h5.4c0.3,0,0.4,0.1,0.4,0.4v3.2
			c0,0.2-0.1,0.4-0.4,0.4h-5.4v3.5h7c0.1,0,0.2,0,0.3,0.1s0.1,0.2,0.1,0.3v3.2c0,0.1-0.1,0.2-0.1,0.3s-0.2,0.1-0.3,0.1h-11
			c-0.3,0-0.4-0.1-0.4-0.4V39.1c0-0.2,0.1-0.4,0.4-0.4h11c0.1,0,0.2,0,0.3,0.1s0.1,0.2,0.1,0.3V42.3z"/>
	</g>
	<g>
		<g>
			<path class="st1" d="M97,136.1c-0.1,0-0.2,0-0.3-0.1c-0.1-0.1-0.1-0.2-0.1-0.3v-8.3l-5.6-9.7c-0.1-0.1-0.1-0.2,0-0.3
				s0.2-0.2,0.4-0.2h3.9c0.1,0,0.2,0,0.3,0.1s0.2,0.2,0.2,0.3l3,5.3l3-5.3c0-0.1,0.1-0.2,0.2-0.3s0.2-0.1,0.3-0.1h3.9
				c0.2,0,0.3,0.1,0.4,0.2s0.1,0.2,0,0.3l-5.6,9.7v8.3c0,0.1-0.1,0.2-0.1,0.3s-0.2,0.1-0.3,0.1H97z"/>
		</g>
		<g>
			<path class="st1" d="M70,135.8c-0.2,0.2-0.3,0.2-0.5,0.3s-0.2,0-0.3,0h-7.8c-0.3,0-0.6-0.1-0.8-0.3l-1.7-1.5
				c-0.2-0.2-0.3-0.3-0.3-0.4c0-0.1,0-0.2,0-0.3v-13.8c0-0.2,0-0.3,0.1-0.4c0-0.1,0.1-0.2,0.3-0.3l1.7-1.5c0.1-0.1,0.2-0.2,0.3-0.2
				c0.1-0.1,0.3-0.1,0.5-0.1h7.8c0.1,0,0.2,0,0.3,0s0.3,0.1,0.4,0.3l1.7,1.5c0.2,0.2,0.3,0.3,0.3,0.4s0.1,0.2,0.1,0.3v2.9
				c0,0.1-0.1,0.2-0.1,0.3c-0.1,0.1-0.2,0.1-0.3,0.1H68c-0.1,0-0.2,0-0.3-0.1s-0.1-0.2-0.1-0.3v-0.7c0-0.1,0-0.1-0.1-0.2l-0.5-0.5
				c0-0.1-0.1-0.1-0.2-0.1h-2.9c-0.1,0-0.2,0-0.2,0.1l-0.5,0.5c-0.1,0.1-0.1,0.2-0.1,0.2v9.5c0,0.1,0,0.1,0.1,0.2l0.4,0.4h3.5
				l0.4-0.4c0.1-0.1,0.1-0.1,0.1-0.2v-2.4h-2c-0.1,0-0.2,0-0.3-0.1s-0.1-0.2-0.1-0.3v-3.2c0-0.2,0.1-0.4,0.4-0.4h6
				c0.1,0,0.2,0,0.3,0.1s0.1,0.2,0.1,0.3v8.2c0,0.1,0,0.2-0.1,0.3s-0.1,0.2-0.2,0.3L70,135.8z"/>
			<path class="st1" d="M139.1,136.1c-0.1,0-0.2,0-0.3-0.1c-0.1-0.1-0.1-0.2-0.1-0.3l-0.1-6.9l-2.3,6.9c0,0.1-0.1,0.2-0.2,0.3
				s-0.2,0.1-0.3,0.1h-2.4c-0.1,0-0.2,0-0.4-0.1s-0.2-0.2-0.2-0.3l-2.3-6.9l-0.1,6.9c0,0.2-0.1,0.4-0.4,0.4h-3.6
				c-0.1,0-0.2,0-0.3-0.1c-0.1-0.1-0.1-0.2-0.1-0.3l0.8-18.1c0-0.1,0-0.2,0.1-0.3s0.1-0.1,0.2-0.1h3.8c0.2,0,0.4,0.1,0.4,0.3
				l2.7,10.5l0.3,2.3l0.2-2.3l3.2-10.4c0.1-0.2,0.2-0.3,0.4-0.3h3.8c0.1,0,0.2,0,0.3,0.1c0.1,0.1,0.1,0.2,0.1,0.3l0.8,18.1
				c0,0.2-0.1,0.4-0.4,0.4H139.1z"/>
		</g>
	</g>
</g>
</svg>
