<?xml version="1.0" encoding="UTF-8" standalone="no"?>
<!DOCTYPE svg PUBLIC "-//W3C//DTD SVG 1.1//EN" "http://www.w3.org/Graphics/SVG/1.1/DTD/svg11.dtd">
<svg width="100%" height="100%" viewBox="0 0 200 153" version="1.1" xmlns="http://www.w3.org/2000/svg" xmlns:xlink="http://www.w3.org/1999/xlink" xml:space="preserve" xmlns:serif="http://www.serif.com/" style="fill-rule:evenodd;clip-rule:evenodd;stroke-linejoin:round;stroke-miterlimit:2;">
    <g>
        <rect x="-7.897" y="-8.171" width="217.538" height="166.236" style="fill:white;"/>
        <g transform="matrix(1,0,0,1,348,0)">
            <rect x="-290" y="145.4" width="85.6" height="6.7" style="fill:rgb(51,51,51);"/>
        </g>
        <g transform="matrix(1,0,0,1,348,0)">
            <path d="M-279.1,42.8C-279.2,42.8 -279.2,42.7 -279.3,42.7L-282.5,42.7L-282.5,46.7L-279.3,46.7C-279.2,46.7 -279.2,46.7 -279.1,46.6L-278.6,46.2C-278.5,46.2 -278.5,46.1 -278.5,46L-278.5,43.5C-278.5,43.4 -278.5,43.3 -278.6,43.2L-279.1,42.8Z" style="fill:rgb(51,51,51);fill-rule:nonzero;"/>
            <path d="M-248.4,51.3L-244.7,51.3L-246.5,45.8L-248.4,51.3Z" style="fill:rgb(51,51,51);fill-rule:nonzero;"/>
            <path d="M-248.2,0L-348,23.7L-348,72L-248.2,95.7L-148.4,72L-148.4,23.7L-248.2,0ZM-307.5,44.1C-307.5,44.2 -307.5,44.3 -307.6,44.4C-307.7,44.5 -307.8,44.5 -307.9,44.5L-311.5,44.5C-311.6,44.5 -311.7,44.5 -311.8,44.4C-311.9,44.3 -311.9,44.2 -311.9,44.1L-311.9,43.4C-311.9,43.3 -311.9,43.3 -312,43.2L-312.5,42.7C-312.6,42.7 -312.6,42.6 -312.7,42.6L-315.6,42.6C-315.7,42.6 -315.7,42.6 -315.8,42.7L-316.3,43.2C-316.4,43.3 -316.4,43.4 -316.4,43.4L-316.4,53C-316.4,53.1 -316.4,53.2 -316.3,53.2L-315.9,53.6L-312.4,53.6L-312,53.2C-311.9,53.2 -311.9,53.1 -311.9,53L-311.9,52.2C-311.9,52.1 -311.9,52 -311.8,51.9C-311.7,51.8 -311.6,51.8 -311.5,51.8L-307.9,51.8C-307.8,51.8 -307.7,51.8 -307.6,51.9C-307.5,52 -307.5,52.1 -307.5,52.2L-307.5,55.2C-307.5,55.3 -307.5,55.3 -307.6,55.4C-307.6,55.4 -307.7,55.6 -307.9,55.7L-309.6,57.2C-309.7,57.3 -309.9,57.4 -310,57.4L-318.6,57.4C-318.7,57.4 -318.9,57.3 -319,57.2L-320.7,55.7C-320.9,55.6 -320.9,55.4 -321,55.3C-321.1,55.2 -321,55.1 -321,55L-321,40.9C-321,40.7 -320.9,40.6 -320.7,40.5L-319,39C-318.8,38.9 -318.7,38.8 -318.6,38.7C-318.5,38.6 -318.4,38.7 -318.2,38.7L-310,38.7C-309.9,38.7 -309.8,38.8 -309.6,38.9L-307.9,40.4C-307.8,40.5 -307.7,40.6 -307.6,40.7C-307.5,40.8 -307.5,40.9 -307.5,41.1L-307.5,44.1ZM-273.2,57.4C-273.2,57.5 -273.3,57.5 -273.5,57.5L-277.7,57.5C-277.8,57.5 -277.9,57.5 -278,57.4C-278.1,57.3 -278.2,57.2 -278.2,57.1L-281.2,50.5L-282.6,50.5L-282.6,57.1C-282.6,57.2 -282.6,57.3 -282.7,57.4C-282.8,57.5 -282.9,57.5 -283,57.5L-286.6,57.5C-286.7,57.5 -286.8,57.5 -286.9,57.4C-287,57.3 -287,57.2 -287,57.2L-287,39.1C-287,39 -287,38.9 -286.9,38.8C-286.8,38.7 -286.7,38.7 -286.6,38.7L-277,38.7C-276.7,38.7 -276.4,38.8 -276.2,39L-274.5,40.5C-274.3,40.7 -274.2,40.8 -274.2,40.9L-274.2,48C-274.2,48.2 -274.2,48.3 -274.3,48.4C-274.3,48.5 -274.4,48.6 -274.5,48.7L-276.3,50.3L-273.2,57.1C-273.1,57.2 -273.1,57.3 -273.2,57.4ZM-238.4,57.4C-238.5,57.5 -238.6,57.5 -238.8,57.5L-242.3,57.5C-242.4,57.5 -242.5,57.5 -242.6,57.4C-242.7,57.3 -242.8,57.2 -242.8,57.1L-243.5,54.9L-249.6,54.9L-250.3,57.1C-250.3,57.2 -250.4,57.3 -250.5,57.4C-250.6,57.5 -250.7,57.5 -250.8,57.5L-254.2,57.5C-254.4,57.5 -254.5,57.5 -254.6,57.4C-254.7,57.3 -254.7,57.2 -254.6,57.1L-248.6,39C-248.5,38.8 -248.4,38.6 -248.2,38.6L-244.6,38.6C-244.4,38.6 -244.3,38.7 -244.2,39L-238.2,57.1C-238.3,57.2 -238.3,57.3 -238.4,57.4ZM-208.8,42.3C-208.8,42.4 -208.9,42.5 -208.9,42.6C-208.9,42.7 -209.1,42.7 -209.2,42.7L-213,42.7L-213,57.2C-213,57.3 -213.1,57.4 -213.1,57.4C-213.1,57.4 -213.3,57.5 -213.4,57.5L-217,57.5C-217.1,57.5 -217.2,57.5 -217.3,57.4C-217.4,57.3 -217.4,57.3 -217.4,57.2L-217.4,42.7L-221.2,42.7C-221.3,42.7 -221.4,42.7 -221.5,42.6C-221.6,42.5 -221.6,42.4 -221.6,42.3L-221.6,39.1C-221.6,39 -221.6,38.9 -221.5,38.8C-221.4,38.7 -221.3,38.7 -221.2,38.7L-209.1,38.7C-209,38.7 -208.9,38.7 -208.8,38.8C-208.7,38.9 -208.7,39 -208.7,39.1L-208.8,42.3ZM-177,42.3C-177,42.4 -177.1,42.5 -177.1,42.6C-177.1,42.7 -177.3,42.7 -177.4,42.7L-184.4,42.7L-184.4,46.2L-179,46.2C-178.7,46.2 -178.6,46.3 -178.6,46.6L-178.6,49.8C-178.6,50 -178.7,50.2 -179,50.2L-184.4,50.2L-184.4,53.7L-177.4,53.7C-177.3,53.7 -177.2,53.7 -177.1,53.8C-177,53.9 -177,54 -177,54.1L-177,57.3C-177,57.4 -177.1,57.5 -177.1,57.6C-177.1,57.7 -177.3,57.7 -177.4,57.7L-188.4,57.7C-188.7,57.7 -188.8,57.6 -188.8,57.3L-188.8,39.1C-188.8,38.9 -188.7,38.7 -188.4,38.7L-177.4,38.7C-177.3,38.7 -177.2,38.7 -177.1,38.8C-177,38.9 -177,39 -177,39.1L-177,42.3Z" style="fill:rgb(51,51,51);fill-rule:nonzero;"/>
        </g>
        <g transform="matrix(1,0,0,1,348,0)">
            <g>
                <path d="M-251,136.1C-251.1,136.1 -251.2,136.1 -251.3,136C-251.4,135.9 -251.4,135.8 -251.4,135.7L-251.4,127.4L-257,117.7C-257.1,117.6 -257.1,117.5 -257,117.4C-256.9,117.3 -256.8,117.2 -256.6,117.2L-252.7,117.2C-252.6,117.2 -252.5,117.2 -252.4,117.3C-252.3,117.4 -252.2,117.5 -252.2,117.6L-249.2,122.9L-246.2,117.6C-246.2,117.5 -246.1,117.4 -246,117.3C-245.9,117.2 -245.8,117.2 -245.7,117.2L-241.8,117.2C-241.6,117.2 -241.5,117.3 -241.4,117.4C-241.3,117.5 -241.3,117.6 -241.4,117.7L-247,127.4L-247,135.7C-247,135.8 -247.1,135.9 -247.1,136C-247.1,136.1 -247.3,136.1 -247.4,136.1L-251,136.1Z" style="fill:rgb(51,51,51);fill-rule:nonzero;"/>
            </g>
            <g>
                <path d="M-278,135.8C-278.2,136 -278.4,136 -278.5,136.1C-278.6,136.2 -278.7,136.1 -278.8,136.1L-286.6,136.1C-286.9,136.1 -287.2,136 -287.4,135.8L-289.1,134.3C-289.3,134.1 -289.4,134 -289.4,133.9L-289.4,119.8C-289.4,119.6 -289.4,119.5 -289.3,119.4C-289.3,119.3 -289.2,119.2 -289,119.1L-287.3,117.6C-287.2,117.5 -287.1,117.4 -287,117.4C-286.9,117.3 -286.7,117.3 -286.5,117.3L-278.3,117.3C-278.2,117.3 -278,117.4 -277.9,117.6L-276.2,119.1C-276,119.3 -275.9,119.4 -275.9,119.5C-275.9,119.6 -275.8,119.7 -275.8,119.8L-275.8,122.7C-275.8,122.8 -275.9,122.9 -275.9,123C-276,123.1 -276.1,123.1 -276.2,123.1L-279.8,123.1C-279.9,123.1 -280,123.1 -280.1,123C-280.2,122.9 -280.2,122.8 -280.2,122.7L-280.2,122C-280.2,121.9 -280.2,121.9 -280.3,121.8L-280.8,121.3C-280.8,121.2 -280.9,121.2 -281,121.2L-283.9,121.2C-284,121.2 -284,121.2 -284.1,121.3L-284.6,121.8C-284.7,121.9 -284.7,122 -284.7,122L-284.7,131.5C-284.7,131.6 -284.7,131.6 -284.6,131.7L-284.2,132.1L-280.7,132.1L-280.3,131.7C-280.2,131.6 -280.2,131.6 -280.2,131.5L-280.2,129.1L-282.2,129.1C-282.3,129.1 -282.4,129.1 -282.5,129C-282.6,128.9 -282.6,128.8 -282.6,128.7L-282.6,125.5C-282.6,125.3 -282.5,125.1 -282.2,125.1L-276.2,125.1C-276.1,125.1 -276,125.1 -275.9,125.2C-275.8,125.3 -275.8,125.4 -275.8,125.5L-275.8,133.7C-275.8,133.8 -275.8,133.9 -275.9,134C-276,134.1 -276,134.2 -276.1,134.3L-278,135.8Z" style="fill:rgb(51,51,51);fill-rule:nonzero;"/>
                <path d="M-208.9,136.1C-209,136.1 -209.1,136.1 -209.2,136C-209.3,135.9 -209.3,135.8 -209.3,135.7L-209.4,128.8L-211.7,135.7C-211.7,135.8 -211.8,135.9 -211.9,136C-212,136.1 -212.1,136.1 -212.2,136.1L-214.6,136.1C-214.7,136.1 -214.8,136.1 -215,136C-215.2,135.9 -215.2,135.8 -215.2,135.7L-217.5,128.8L-217.6,135.7C-217.6,135.9 -217.7,136.1 -218,136.1L-221.6,136.1C-221.7,136.1 -221.8,136.1 -221.9,136C-222,135.9 -222,135.8 -222,135.7L-221.2,117.6C-221.2,117.5 -221.2,117.4 -221.1,117.3C-221,117.2 -221,117.2 -220.9,117.2L-217.1,117.2C-216.9,117.2 -216.7,117.3 -216.7,117.5L-214,128L-213.7,130.3L-213.5,128L-210.3,117.6C-210.2,117.4 -210.1,117.3 -209.9,117.3L-206.1,117.3C-206,117.3 -205.9,117.3 -205.8,117.4C-205.7,117.5 -205.7,117.6 -205.7,117.7L-204.9,135.8C-204.9,136 -205,136.2 -205.3,136.2L-208.9,136.2L-208.9,136.1Z" style="fill:rgb(51,51,51);fill-rule:nonzero;"/>
            </g>
        </g>
    </g>
</svg>
