<?xml version="1.0" encoding="UTF-8" standalone="no"?>
<!DOCTYPE svg PUBLIC "-//W3C//DTD SVG 1.1//EN" "http://www.w3.org/Graphics/SVG/1.1/DTD/svg11.dtd">
<svg width="100%" height="100%" viewBox="0 0 200 153" version="1.1" xmlns="http://www.w3.org/2000/svg" xmlns:xlink="http://www.w3.org/1999/xlink" xml:space="preserve" xmlns:serif="http://www.serif.com/" style="fill-rule:evenodd;clip-rule:evenodd;stroke-linejoin:round;stroke-miterlimit:2;">
    <rect x="0" y="0" width="199.6" height="152.1" style="fill:rgb(51,51,51);"/>
    <g>
        <rect x="58" y="145.4" width="85.6" height="6.7" style="fill:white;"/>
        <g>
            <path d="M68.9,42.8C68.8,42.8 68.8,42.7 68.7,42.7L65.5,42.7L65.5,46.7L68.7,46.7C68.8,46.7 68.9,46.7 68.9,46.6L69.4,46.2C69.5,46.2 69.5,46.1 69.5,46L69.5,43.5C69.5,43.4 69.5,43.3 69.4,43.2L68.9,42.8Z" style="fill:white;fill-rule:nonzero;"/>
            <path d="M99.7,51.3L103.3,51.3L101.5,45.8L99.7,51.3Z" style="fill:white;fill-rule:nonzero;"/>
            <path d="M99.8,0L0,23.7L0,72L99.8,95.7L199.6,72L199.6,23.7L99.8,0ZM40.5,44.1C40.5,44.2 40.5,44.3 40.4,44.4C40.3,44.5 40.2,44.5 40.1,44.5L36.5,44.5C36.4,44.5 36.3,44.5 36.2,44.4C36.1,44.3 36.1,44.2 36.1,44.1L36.1,43.4C36.1,43.3 36.1,43.3 36,43.2L35.5,42.7C35.4,42.7 35.4,42.6 35.3,42.6L32.4,42.6C32.3,42.6 32.2,42.6 32.2,42.7L31.7,43.2C31.6,43.3 31.6,43.4 31.6,43.4L31.6,53C31.6,53.1 31.6,53.2 31.7,53.2L32.1,53.6L35.6,53.6L36,53.2C36.1,53.2 36.1,53.1 36.1,53L36.1,52.2C36.1,52.1 36.1,52 36.2,51.9C36.3,51.8 36.4,51.8 36.5,51.8L40.1,51.8C40.2,51.8 40.3,51.8 40.4,51.9C40.5,52 40.5,52.1 40.5,52.2L40.5,55.4C40.5,55.4 40.4,55.6 40.2,55.7L38.5,57.2C38.4,57.3 38.2,57.4 38.1,57.4L29.5,57.4C29.3,57.4 29.2,57.3 29.1,57.2L27.4,55.7C27.2,55.6 27.2,55.4 27.1,55.3C27,55.2 27.1,55.1 27.1,55L27.1,40.9C27.1,40.7 27.2,40.6 27.4,40.5L29.1,39C29.3,38.9 29.4,38.8 29.5,38.7C29.6,38.6 29.7,38.7 29.9,38.7L38.1,38.7C38.2,38.7 38.3,38.8 38.5,38.9L40.2,40.4C40.3,40.5 40.4,40.6 40.5,40.7C40.6,40.8 40.6,40.9 40.6,41.1C40.5,41.2 40.5,44.1 40.5,44.1ZM74.8,57.4C74.8,57.5 74.7,57.5 74.5,57.5L70.3,57.5C70.2,57.5 70.1,57.5 70,57.4C69.9,57.3 69.8,57.2 69.8,57.1L66.8,50.5L65.4,50.5L65.4,57.1C65.4,57.2 65.4,57.3 65.3,57.4C65.2,57.5 65.1,57.5 65,57.5L61.4,57.5C61.3,57.5 61.2,57.5 61.1,57.4C61,57.3 61,57.2 61,57.2L61,39.1C61,39 61,38.9 61.1,38.8C61.2,38.7 61.3,38.7 61.4,38.7L71,38.7C71.3,38.7 71.6,38.8 71.8,39L73.5,40.5C73.7,40.7 73.8,40.8 73.8,40.9L73.8,48C73.8,48.2 73.8,48.3 73.7,48.4C73.6,48.5 73.6,48.6 73.5,48.7L71.7,50.3L74.8,57.1C74.9,57.2 74.9,57.3 74.8,57.4ZM109.6,57.4C109.5,57.5 109.4,57.5 109.2,57.5L105.8,57.5C105.7,57.5 105.6,57.5 105.5,57.4C105.4,57.3 105.3,57.2 105.3,57.1L104.6,54.9L98.5,54.9L97.8,57.1C97.8,57.2 97.7,57.3 97.6,57.4C97.5,57.5 97.4,57.5 97.3,57.5L93.9,57.5C93.7,57.5 93.6,57.5 93.5,57.4C93.4,57.3 93.4,57.2 93.5,57.1L99.5,39C99.6,38.8 99.7,38.6 99.9,38.6L103.5,38.6C103.7,38.6 103.8,38.7 103.9,39L109.9,57.1C109.7,57.2 109.7,57.3 109.6,57.4ZM139.2,42.3C139.2,42.4 139.1,42.5 139.1,42.6C139.1,42.7 138.9,42.7 138.8,42.7L135,42.7L135,57.2C135,57.3 134.9,57.4 134.9,57.4C134.9,57.4 134.7,57.5 134.6,57.5L131,57.5C130.9,57.5 130.8,57.5 130.7,57.4C130.6,57.3 130.6,57.3 130.6,57.2L130.6,42.7L126.8,42.7C126.7,42.7 126.6,42.7 126.5,42.6C126.4,42.5 126.4,42.4 126.4,42.3L126.4,39.1C126.4,39 126.5,38.9 126.5,38.8C126.5,38.7 126.7,38.7 126.8,38.7L138.9,38.7C139,38.7 139.1,38.7 139.2,38.8C139.3,38.9 139.3,39 139.3,39.1L139.2,42.3ZM171,42.3C171,42.4 170.9,42.5 170.9,42.6C170.9,42.7 170.7,42.7 170.6,42.7L163.6,42.7L163.6,46.2L169,46.2C169.3,46.2 169.4,46.3 169.4,46.6L169.4,49.8C169.4,50 169.3,50.2 169,50.2L163.6,50.2L163.6,53.7L170.6,53.7C170.7,53.7 170.8,53.7 170.9,53.8C171,53.9 171,54 171,54.1L171,57.3C171,57.4 170.9,57.5 170.9,57.6C170.9,57.7 170.7,57.7 170.6,57.7L159.6,57.7C159.3,57.7 159.2,57.6 159.2,57.3L159.2,39.1C159.2,38.9 159.3,38.7 159.6,38.7L170.6,38.7C170.7,38.7 170.8,38.7 170.9,38.8C171,38.9 171,39 171,39.1L171,42.3Z" style="fill:white;fill-rule:nonzero;"/>
        </g>
        <g>
            <g>
                <path d="M97,136.1C96.9,136.1 96.8,136.1 96.7,136C96.6,135.9 96.6,135.8 96.6,135.7L96.6,127.4L91,117.7C90.9,117.6 90.9,117.5 91,117.4C91.1,117.3 91.2,117.2 91.4,117.2L95.3,117.2C95.4,117.2 95.5,117.2 95.6,117.3C95.7,117.4 95.8,117.5 95.8,117.6L98.8,122.9L101.8,117.6C101.8,117.5 101.9,117.4 102,117.3C102.1,117.2 102.2,117.2 102.3,117.2L106.2,117.2C106.4,117.2 106.5,117.3 106.6,117.4C106.7,117.5 106.7,117.6 106.6,117.7L101,127.4L101,135.7C101,135.8 100.9,135.9 100.9,136C100.9,136.1 100.7,136.1 100.6,136.1L97,136.1Z" style="fill:white;fill-rule:nonzero;"/>
            </g>
            <g>
                <path d="M70,135.8C69.8,136 69.7,136 69.5,136.1C69.3,136.2 69.3,136.1 69.2,136.1L61.4,136.1C61.1,136.1 60.8,136 60.6,135.8L58.9,134.3C58.7,134.1 58.6,134 58.6,133.9L58.6,119.8C58.6,119.6 58.6,119.5 58.7,119.4C58.7,119.3 58.8,119.2 59,119.1L60.7,117.6C60.8,117.5 60.9,117.4 61,117.4C61.1,117.3 61.3,117.3 61.5,117.3L69.6,117.3C69.7,117.3 69.9,117.4 70,117.6L71.7,119.1C71.9,119.3 72,119.4 72,119.5C72,119.6 72.1,119.7 72.1,119.8L72.1,122.7C72.1,122.8 72,122.9 72,123C71.9,123.1 71.8,123.1 71.7,123.1L68,123.1C67.9,123.1 67.8,123.1 67.7,123C67.6,122.9 67.6,122.8 67.6,122.7L67.6,122C67.6,121.9 67.6,121.9 67.5,121.8L67,121.3C67,121.2 66.9,121.2 66.8,121.2L63.9,121.2C63.8,121.2 63.7,121.2 63.7,121.3L63.2,121.8C63.1,121.9 63.1,122 63.1,122L63.1,131.5C63.1,131.6 63.1,131.6 63.2,131.7L63.6,132.1L67.1,132.1L67.5,131.7C67.6,131.6 67.6,131.6 67.6,131.5L67.6,129.1L65.6,129.1C65.5,129.1 65.4,129.1 65.3,129C65.2,128.9 65.2,128.8 65.2,128.7L65.2,125.5C65.2,125.3 65.3,125.1 65.6,125.1L71.6,125.1C71.7,125.1 71.8,125.1 71.9,125.2C72,125.3 72,125.4 72,125.5L72,133.7C72,133.8 72,133.9 71.9,134C71.8,134.1 71.8,134.2 71.7,134.3L70,135.8Z" style="fill:white;fill-rule:nonzero;"/>
                <path d="M139.1,136.1C139,136.1 138.9,136.1 138.8,136C138.7,135.9 138.7,135.8 138.7,135.7L138.6,128.8L136.3,135.7C136.3,135.8 136.2,135.9 136.1,136C136,136.1 135.9,136.1 135.8,136.1L133.4,136.1C133.3,136.1 133.2,136.1 133,136C132.8,135.9 132.8,135.8 132.8,135.7L130.5,128.8L130.4,135.7C130.4,135.9 130.3,136.1 130,136.1L126.4,136.1C126.3,136.1 126.2,136.1 126.1,136C126,135.9 126,135.8 126,135.7L126.8,117.6C126.8,117.5 126.8,117.4 126.9,117.3C127,117.2 127,117.2 127.1,117.2L130.9,117.2C131.1,117.2 131.3,117.3 131.3,117.5L134,128L134.3,130.3L134.5,128L137.7,117.6C137.8,117.4 137.9,117.3 138.1,117.3L141.9,117.3C142,117.3 142.1,117.3 142.2,117.4C142.3,117.5 142.3,117.6 142.3,117.7L143.1,135.8C143.1,136 143,136.2 142.7,136.2L139.1,136.2L139.1,136.1Z" style="fill:white;fill-rule:nonzero;"/>
            </g>
        </g>
    </g>
</svg>
